<svg width="130" height="39" viewBox="0 0 130 39" fill="none" xmlns="http://www.w3.org/2000/svg">
<path d="M76.4462 9.5176C73.4996 9.5176 71.7897 11.1861 70.4782 13.024H70.1545L70.0715 9.89873H64.1451C64.1451 9.89873 64.2281 11.6519 64.2281 13.4475V31.0048H70.3205V18.8171C70.8517 15.9375 72.3209 13.8963 74.2881 13.8963C75.7158 13.8963 76.7035 14.9381 76.7035 16.9792V30.9878H82.8789V17.1825C82.8623 11.347 79.6335 9.5176 76.4462 9.5176ZM86.9544 9.89026H93.0054V30.9963H86.9544V9.89026ZM89.9342 0.42134C88.0916 0.42134 86.5809 1.71718 86.5809 3.71598C86.5809 5.75714 88.0916 6.96828 89.9342 6.96828C91.7354 6.96828 93.3291 5.75714 93.3291 3.71598C93.3291 1.71718 91.7354 0.42134 89.9342 0.42134ZM124.19 9.89026L119.981 24.9914C119.981 24.9914 120.919 8.93321 107.921 9.89873L105.066 9.95802L104.983 3.39414H100.525L99.0148 9.89873H95.2548V14.4469H99.0148V25.1693C99.0148 29.2939 101.264 31.5045 105.306 31.5045C107.108 31.5045 108.901 30.7507 109.921 30.0901L110.004 25.9993C109.025 26.3719 107.88 26.7531 106.693 26.7531C105.63 26.7531 105.016 26.084 105.016 25.0422L105.057 14.4807L107.772 14.4469C117.201 14.4469 115.059 29.3363 115.059 29.3363C116.487 29.2008 117.45 29.7852 117.45 31.0048C117.45 31.7162 117.284 32.3006 116.96 32.8003C116.304 33.7997 115.117 34.3418 113.731 34.3418C113.076 34.3418 112.138 34.2571 111.44 34.13V38.6273C112.544 38.8814 113.814 39 114.711 39C118.222 39 121.168 37.3315 122.438 33.4525L130 9.89026H124.19V9.89026ZM10.1513 0.793998L0 30.9878H6.05925L8.02643 24.4748H17.9287L19.9374 30.9878H26.3204L15.8039 0.793998H10.1513ZM9.33789 19.5879L12.8572 8.6029H13.1809L16.4596 19.5879H9.33789ZM47.5527 9.89026V7.26471C47.5527 6.26531 48.1669 5.09651 50.2088 4.99488C52.7155 4.86784 54.8819 5.51999 56.9487 6.24837L58.0443 1.42921C56.1186 0.836346 52.7819 -0.027545 49.1961 0.0825588C43.7511 0.251949 41.5432 3.04689 41.5432 7.09532V9.89026H34.2721V7.26471C34.2721 6.26531 34.8864 4.96947 36.9282 4.85937C37.833 4.80855 38.6464 4.92712 39.5179 5.12192L40.5555 0.522974C39.1527 0.218071 37.5591 -0.044484 35.9156 0.00633311C30.4706 0.175724 28.2627 3.04689 28.2627 7.09532V9.89026H25.1998V14.142H28.2627V30.9878H34.2721V14.142H41.5432V30.9878H47.5527V14.142H53.9273V30.9878H59.8953V9.89026H47.5527Z" fill="#006CFC"/>
</svg>
