<svg width="130" height="39" fill="none" xmlns="http://www.w3.org/2000/svg"><path d="M76.446 9.518c-2.946 0-4.656 1.668-5.968 3.506h-.323l-.084-3.125h-5.926s.083 1.753.083 3.549v17.557h6.093V18.817c.53-2.88 2-4.92 3.967-4.92 1.428 0 2.416 1.041 2.416 3.082v14.009h6.175V17.183c-.017-5.836-3.246-7.665-6.433-7.665zm10.508.372h6.051v21.106h-6.05V9.89zm2.98-9.469c-1.842 0-3.353 1.296-3.353 3.295 0 2.041 1.51 3.252 3.353 3.252 1.801 0 3.395-1.21 3.395-3.252 0-1.999-1.594-3.295-3.395-3.295zm34.256 9.47l-4.209 15.1s.938-16.058-12.06-15.092l-2.855.059-.083-6.564h-4.458L99.015 9.9h-3.76v4.548h3.76V25.17c0 4.125 2.249 6.335 6.291 6.335 1.802 0 3.595-.753 4.615-1.414l.083-4.09c-.979.372-2.124.753-3.311.753-1.063 0-1.677-.669-1.677-1.71l.041-10.562 2.715-.034c9.429 0 7.287 14.89 7.287 14.89 1.428-.136 2.391.448 2.391 1.668 0 .711-.166 1.296-.49 1.795-.656 1-1.843 1.542-3.229 1.542a14.41 14.41 0 01-2.291-.212v4.497a15.78 15.78 0 003.271.373c3.511 0 6.457-1.669 7.727-5.547L130 9.89h-5.81zM10.151.793L0 30.988h6.06l1.966-6.513h9.903l2.008 6.513h6.383L15.804.794H10.15zm-.813 18.794l3.52-10.985h.323l3.279 10.985H9.338zM47.553 9.89V7.265c0-1 .614-2.168 2.656-2.27 2.506-.127 4.673.525 6.74 1.253l1.095-4.819C56.12.836 52.782-.028 49.196.083c-5.445.169-7.653 2.964-7.653 7.012V9.89h-7.27V7.265c0-1 .613-2.296 2.655-2.406.905-.05 1.718.068 2.59.263L40.556.523c-1.403-.305-2.997-.567-4.64-.517-5.445.17-7.653 3.04-7.653 7.09V9.89H25.2v4.252h3.063v16.846h6.01V14.142h7.27v16.846h6.01V14.142h6.374v16.846h5.968V9.89H47.553z" fill="#006CFC"/></svg>